<?xml version="1.0" standalone="no"?>
<!DOCTYPE svg PUBLIC "-//W3C//DTD SVG 20010904//EN"
 "http://www.w3.org/TR/2001/REC-SVG-20010904/DTD/svg10.dtd">
<svg version="1.0" xmlns="http://www.w3.org/2000/svg"
 width="240.000000pt" height="240.000000pt" viewBox="0 0 240.000000 240.000000"
 preserveAspectRatio="xMidYMid meet">
<metadata>
Created by potrace 1.14, written by Peter Selinger 2001-2017
</metadata>
<g transform="translate(0.000000,240.000000) scale(0.100000,-0.100000)"
fill="#000000" stroke="none">
<path d="M800 2100 l0 -300 400 0 400 0 0 300 0 300 -400 0 -400 0 0 -300z"/>
<path d="M1100 1450 l0 -150 -450 0 -450 0 0 -250 0 -250 100 0 100 0 0 150 0
150 350 0 350 0 0 -150 0 -150 100 0 100 0 0 150 0 150 350 0 350 0 0 -150 0
-150 100 0 100 0 0 250 0 250 -450 0 -450 0 0 150 0 150 -100 0 -100 0 0 -150z"/>
<path d="M0 300 l0 -300 300 0 300 0 0 300 0 300 -300 0 -300 0 0 -300z m400
0 l0 -100 -100 0 -100 0 0 100 0 100 100 0 100 0 0 -100z"/>
<path d="M900 300 l0 -300 300 0 300 0 0 300 0 300 -300 0 -300 0 0 -300z
m400 0 l0 -100 -100 0 -100 0 0 100 0 100 100 0 100 0 0 -100z"/>
<path d="M1800 300 l0 -300 300 0 300 0 0 300 0 300 -300 0 -300 0 0 -300z
m400 0 l0 -100 -100 0 -100 0 0 100 0 100 100 0 100 0 0 -100z"/>
</g>
</svg>
